<svg xmlns="http://www.w3.org/2000/svg" viewBox="0 0 104.17 134.53"><defs><style>.cls-1{fill:#fff;fill-rule:evenodd;}</style></defs><title>Asset 1</title><g id="Layer_2" data-name="Layer 2"><g id="Layer_1-2" data-name="Layer 1"><path class="cls-1" d="M97.38,36.8c-.24,2.75-.3,4.48-.54,6.18-1.38,9.58-5.55,16.83-11.22,24.26C71,86.32,62.51,94.08,38.83,118.26c4.36,4.1,8.42,8.69,12.71,12.86,1.72,1.68,1.56,1.67,3.19,3.41,7.72-7.53,25.38-24.91,31.14-31.83,9.57-11.48,17.78-23.53,18.27-39.26A49.69,49.69,0,0,0,97.38,36.8Z"/><path class="cls-1" d="M28.3,13.94C24,19.1,19.75,24.24,15.59,29.47c-.9,1.14-2.13,3-1.76,4,2.45,6.61-.85,11.77-3.54,17.28C6.86,57.77,3.81,65,.62,72.12c-1.43,3.21-.37,5.49,2.91,6.51a103.56,103.56,0,0,0,12.6,3.45c5.49,1,8.71-2.36,8.87-8A18.06,18.06,0,0,1,26.72,67c3.41-7,9.62-8.89,16.75-7.77,5.36.84,9.33-.93,12.67-4.86C58,52.21,59.88,50.18,61.59,48,68,39.64,74.43,31.29,74.31,19.69a38.92,38.92,0,0,1,1.43,5.44c1.09,8.93-3.31,16.09-8.46,22.49C59.7,57.06,49.23,70.85,20.54,98.78c.78.84,2.55,2.77,3.37,3.59,4.1,4.08,7.06,7.35,11.26,11.31,28.88-30.83,31.7-32.8,41.91-45.33A150.31,150.31,0,0,0,91.87,47.22c4-7.17,4.5-15.35-.81-22.26C80.32,11,63.34,2,50,5.05c-1.32.53-2,1-3.06,2.93C42.27,2.73,38.48-.88,30.72.19l2.41,4.49L20.25,3.45c2.57,3.59,4.33,6.18,6.22,8.66a12.66,12.66,0,0,0,1.83,1.83"/></g></g></svg>